<svg id="katman_1" data-name="katman 1" xmlns="http://www.w3.org/2000/svg" viewBox="0 0 1080 219.23"><path d="M25.12,208.55A36.58,36.58,0,0,1,9.69,195q-5.5-8.76-5.5-20.66,0-14.15,7.25-24.34,7.24-9.9,21.87-16.56t40.12-8.35l17.45-1.13V113.16q0-17.55-7.92-25.47T57.33,79.76a80.55,80.55,0,0,0-23.21,3.68A89.23,89.23,0,0,0,11.71,93.63L12.24,73a87.18,87.18,0,0,1,23.08-9.34,101.6,101.6,0,0,1,25.5-3.4q26.29,0,38.91,12.88t12.62,38.07L111.54,210H91.41l.27-14.15q0-7.35.81-18.4H92q-4.83,18.12-15.7,27t-28.31,8.92A51.69,51.69,0,0,1,25.12,208.55Zm43.62-17.69a32,32,0,0,0,11.94-10.33,48,48,0,0,0,7.78-17.27,102.66,102.66,0,0,0,2.15-22.64l-13.42.85q-20.4,1.41-31.94,5.94t-15.83,13.3a23.24,23.24,0,0,0-2.42,11q0,10.49,7.12,16.56T53,194.4A34.78,34.78,0,0,0,68.74,190.86Z"/><path d="M162.66,201.76q-21.33-11.61-33.27-34.54t-11.95-55.76q0-30.84,11.95-54.06A86.51,86.51,0,0,1,163.6,21.31Q185.88,8.44,215.94,8.43A142.16,142.16,0,0,1,242.51,11a166.24,166.24,0,0,1,25.22,6.79l-.26,21.8q-27.12-11.32-51.53-11.32-23.08,0-39.72,10.47A66.89,66.89,0,0,0,150.86,68q-8.73,18.83-8.73,43.73,0,23.49,8.19,41.89a64.81,64.81,0,0,0,24.42,28.87Q191,193,214.06,193a133,133,0,0,0,24.29-2.26,162.46,162.46,0,0,0,26.7-7.65l-.27,21.23q-23.88,9.06-52.33,9.06T162.66,201.76Z"/><path d="M284.11,208.55A36.52,36.52,0,0,1,268.68,195q-5.51-8.76-5.51-20.66,0-14.15,7.25-24.34,7.24-9.9,21.87-16.56t40.13-8.35l17.44-1.13V113.16q0-17.55-7.92-25.47t-25.63-7.93a80.55,80.55,0,0,0-23.21,3.68,89.4,89.4,0,0,0-22.41,10.19L271.23,73a86.9,86.9,0,0,1,23.08-9.34,101.47,101.47,0,0,1,25.49-3.4q26.29,0,38.92,12.88t12.61,38.07l-.8,98.78H350.4l.27-14.15q0-7.35.8-18.4h-.54q-4.83,18.12-15.7,27t-28.31,8.92A51.62,51.62,0,0,1,284.11,208.55Zm43.61-17.69a32,32,0,0,0,11.94-10.33,48,48,0,0,0,7.78-17.27,102.66,102.66,0,0,0,2.15-22.64l-13.42.85q-20.4,1.41-31.93,5.94t-15.84,13.3a23.24,23.24,0,0,0-2.41,11q0,10.49,7.11,16.56T312,194.4A34.75,34.75,0,0,0,327.72,190.86Z"/><path d="M529.67,11.83h21.2L550.07,210h-20.4L419.37,50.61,418.56,210h-21.2l1.07-198.13h21.2l109.5,158.22Z"/><path d="M581.47,208.55A36.55,36.55,0,0,1,566,195q-5.5-8.76-5.5-20.66,0-14.15,7.25-24.34,7.25-9.9,21.87-16.56t40.12-8.35l17.45-1.13V113.16q0-17.55-7.92-25.47t-25.63-7.93a80.49,80.49,0,0,0-23.21,3.68,89.23,89.23,0,0,0-22.41,10.19L568.58,73a87,87,0,0,1,23.08-9.34,101.6,101.6,0,0,1,25.5-3.4q26.3,0,38.91,12.88t12.62,38.07L667.88,210H647.75l.27-14.15q0-7.35.81-18.4h-.54q-4.83,18.12-15.7,27t-28.31,8.92A51.62,51.62,0,0,1,581.47,208.55Zm43.61-17.69A32,32,0,0,0,637,180.53a48,48,0,0,0,7.78-17.27A102.66,102.66,0,0,0,647,140.62l-13.42.85q-20.4,1.41-31.94,5.94t-15.83,13.3a23.24,23.24,0,0,0-2.42,11q0,10.49,7.12,16.56t18.92,6.09A34.78,34.78,0,0,0,625.08,190.86Z"/><path d="M751.91,210.58a72.41,72.41,0,0,1-20,2.78q-19.34,0-28.72-10.47t-9.39-32.84l.53-88H671.82V63.63h22.54l.27-35.38,22-1.7-.27,37.08h42.94V82H716.37l-.27,79.82q-.27,12.45,1.88,19.53t7,10.19q4.83,3.12,13.42,3.11a48.33,48.33,0,0,0,13.15-2m.18,0"/><path d="M768.92,199.92Q756.17,186.48,756.17,157l.81-93.4h22.27l-.53,89.16q0,21,7.38,30.57T809.85,193q18.51,0,28.71-14.15T849,137.5l.8-73.87h22.28L871.3,210H849.83v-11.6q0-12.45.54-21.23h-.54q-4,17.26-15.83,26.75t-28.72,9.48Q781.67,213.36,768.92,199.92Z"/><path d="M887.67,63.63h22V77.78q0,9.34-.54,25.76h.54q3.5-21.51,15-32.41t28.18-10.9a54,54,0,0,1,15.83,2.55l-2.41,21a48.24,48.24,0,0,0-14.22-2,35.36,35.36,0,0,0-21.61,7.08q-9.53,7.08-15,20.66T910,141.75L909.41,210H886.87Z"/><path d="M988.32,180q13.14,13.88,37.3,13.87a80.06,80.06,0,0,0,22-2.83,129.58,129.58,0,0,0,21.47-8.49L1068,202.89a93.26,93.26,0,0,1-21.74,7.64,112.94,112.94,0,0,1-25.23,2.83q-23.35,0-39.18-9.76a59.7,59.7,0,0,1-23.62-27.32q-7.78-17.55-7.78-41,0-21.23,7.51-38.35A60.9,60.9,0,0,1,980.13,70q14.63-9.76,34.49-9.77,22,0,35.56,10.9t19.59,28.73a121.92,121.92,0,0,1,6,39.34H974.36Q975.17,166.1,988.32,180ZM993,84.15A38.13,38.13,0,0,0,979.6,99.72a59,59,0,0,0-5.51,21.93h77.83a54.74,54.74,0,0,0-4.29-22.22A34.85,34.85,0,0,0,1034.75,84q-8.6-5.66-20.94-5.66Q1001.74,78.35,993,84.15Z"/></svg>