<svg xmlns="http://www.w3.org/2000/svg" viewBox="0 0 352.32 367.87"><defs><style>.cls-1{fill:#94a4a5;}.cls-2{fill:#aebabb;}.cls-3{fill:#a1afaf;}.cls-4{fill:#bcc2c6;}.cls-5{fill:#a8b3b6;}.cls-6{fill:#3497da;}.cls-7{fill:#2980b8;}.cls-8{fill:#3b99d8;}.cls-9{fill:#3386bc;}.cls-10{fill:#ebeff0;}.cls-11{fill:#e64c3c;}.cls-12{fill:#a2c4db;}.cls-13{fill:#bf392b;}.cls-14{fill:#7f8b8c;}</style></defs><g id="katman_2" data-name="katman 2"><g id="katman_1-2" data-name="katman 1"><path class="cls-1" d="M351.7,200.76c-1.87,36.75-14.2,69.76-36.57,98.8-26.76,34.75-62.24,55.83-105,64.85a143.66,143.66,0,0,1-18.48,2.72c-.72.06-1.52-.08-2,.74h-4.5c-1.18-.78-2.5-.21-3.75-.38-1.24.17-2.56-.4-3.75.38h-3c-1.21-.78-2.56-.21-3.83-.38-1.47.19-3-.43-4.42.38h-4.5c-5.43-1.81-11.18-1.85-16.75-2.88A176.38,176.38,0,0,1,64.8,328c-27.11-22-45.51-50.06-56.19-83.22a158.67,158.67,0,0,1-7.94-44c-.55-1.63-.18-3.3-.24-4.95a.78.78,0,0,1,.91-.58c1.68,1.64,1.52,3.88,1.82,5.92a175.2,175.2,0,0,0,28.9,73.65c18.58,27.41,43.36,47.43,73.34,61a169.64,169.64,0,0,0,50.4,13.83A154.55,154.55,0,0,0,175.56,351a183.31,183.31,0,0,0,38.25-4.21,175.32,175.32,0,0,0,78.3-39.89A171.63,171.63,0,0,0,339,239.56a166.11,166.11,0,0,0,10.44-39.77c.2-1.56.23-3.28,1.5-4.53a.84.84,0,0,1,1,.48C351.89,197.41,352.24,199.11,351.7,200.76Z"/><path class="cls-2" d="M166.44,367.87c1.31-1.39,3-.49,4.49-.73.25.16.33.32.25.48s-.16.25-.24.25Z"/><path class="cls-3" d="M170.94,367.87c0-.24,0-.49,0-.73,1.27.15,2.7-.51,3.76.73Z"/><path class="cls-3" d="M177.68,367.87c1.06-1.24,2.49-.57,3.76-.73.24.16.32.33.24.49s-.17.24-.25.24Z"/><path class="cls-2" d="M181.43,367.87c0-.24,0-.49,0-.73,1.26.18,2.7-.54,3.74.73Z"/><path class="cls-4" d="M351.7,200.76l-.14-5.29c-.6-1.14-.22-2.34-.27-3.41-.31,1,.3,2.29-.41,3.39A160.09,160.09,0,0,1,341.4,236a177.14,177.14,0,0,1-22.64,42.83,170.3,170.3,0,0,1-34,35.45,176.67,176.67,0,0,1-57.69,30,179.52,179.52,0,0,1-42.87,7.26,171.79,171.79,0,0,1-66.25-9.77,175.55,175.55,0,0,1-55.73-32c-21.86-18.47-37.89-41.16-48.78-67.5A160.51,160.51,0,0,1,1.49,195.45c-.71-1.1-.1-2.36-.42-3.39,0,1.07.34,2.27-.26,3.41-.05,1.76-.09,3.53-.14,5.29-.95-1.21-.58-2.64-.6-4-.17-16.09-.22-32.18,2.25-48.13A175.63,175.63,0,0,1,22.37,90.28,171.74,171.74,0,0,1,51.26,51.84,175.82,175.82,0,0,1,297,48,174,174,0,0,1,334.28,98.6,172,172,0,0,1,351,156.8c1.4,13.57,1.31,27.14,1.3,40.73C352.29,198.63,352.52,199.8,351.7,200.76Z"/><path class="cls-5" d="M.81,195.47v-3.59c1,1.46.58,2.55.68,3.57H1.15Z"/><path class="cls-5" d="M350.88,195.45v-3.68c1,1.59.62,2.67.68,3.7l-.34,0Z"/><path class="cls-6" d="M111.72,304.11c-9.23-4-17.44-9.65-25.18-15.94C64.21,270,48.27,247.35,39.33,219.91a135.88,135.88,0,0,1-6.86-38.82c.16-2.28.35-4.56.53-6.85.53-10.57,3.27-20.7,6.69-30.6A140.16,140.16,0,0,1,74.31,88.69q35.1-34.41,84.06-40.56a146.77,146.77,0,0,1,66.33,7.09,30.08,30.08,0,0,1,5.86,2.44c1.45,2.06-.36,3.31-1.37,4.48-8.09,9.33-16.09,18.74-24.13,28.13Q188.15,110,171.23,129.78c-7.93,9.3-15.95,18.53-23.85,27.86a11.82,11.82,0,0,0-2.24,3.43c-4.54,19-8.53,38.2-12.86,57.28-6.16,27.1-11.85,54.3-18.21,81.35-.27.92-.62,1.82-1,2.71A3.26,3.26,0,0,1,111.72,304.11Z"/><path class="cls-6" d="M319.93,179.61a136.19,136.19,0,0,1-10,48.74c-13.87,34.42-37.5,60-70.59,76.65a142,142,0,0,1-117.92,3.68c1.69-4.16,5.13-7,8-10.29,24.81-28.85,49.41-57.88,74.35-86.62a22.55,22.55,0,0,0,5-10.28c9.58-43.78,19.42-87.5,29.07-131.26a27,27,0,0,1,.84-3.06c-.94.43-1.67,1.51-2.75.67-1.1-2-.44-3.91.59-5.74,1.87-1.58,3.56-.35,5.17.47a149,149,0,0,1,30.25,20.49,142.38,142.38,0,0,1,32.38,41.23,138.18,138.18,0,0,1,14.91,46.41C319.59,173.65,319.33,176.67,319.93,179.61Z"/><path class="cls-7" d="M231,58.29c-7.6-2.3-15.06-5.09-22.85-6.74a174,174,0,0,0-25.06-3.22c-19.16-1.23-37.62,1.79-55.57,8.07A140.1,140.1,0,0,0,80.94,84,142.12,142.12,0,0,0,47.06,128.5a135.44,135.44,0,0,0-13.34,45.92c-1.63-.09-1.07-1.38-1-2.18.06-2.3-.39-4.63.28-6.9A126.93,126.93,0,0,1,45.84,115C65.62,74,97.64,47.5,141.72,36.3c32.65-8.3,64.53-4.91,95.21,9.15,1,.47,2,1.06,3,1.59a3.72,3.72,0,0,1-.43,3.81,4.91,4.91,0,0,1-.74.7A21.76,21.76,0,0,0,234.4,56C233.54,57.08,232.81,58.5,231,58.29Z"/><path class="cls-7" d="M236,68l3.95-2.89c-2.4,10.9-4.68,21.27-7,31.65q-10,45.4-20.12,90.81c-1.26,5.69-2.69,11.35-3.79,17.07-.66,3.4-2.86,5.73-4.91,8.15q-17.61,20.73-35.36,41.34c-9.8,11.4-19.7,22.71-29.5,34.11-5.18,6-10.22,12.17-15.37,18.23a24,24,0,0,1-2.47,2.24l-6-2.48c-1.61-2.54.11-4.8.58-7.17,3.68-6.14,8.86-11.08,13.44-16.49,11.42-13.52,23-26.91,34.51-40.33q16.81-19.58,33.57-39.19c3.45-4,7.53-7.62,9.89-12.54q13.08-59.29,26.31-118.54C234.11,70.45,234,68.61,236,68Z"/><path class="cls-7" d="M239.18,50.31c.24-1.09.47-2.18.71-3.27A134.25,134.25,0,0,1,283,79.36a141.09,141.09,0,0,1,32.92,62.12,132.33,132.33,0,0,1,4,38.13c-1.43-7.4-2.59-14.87-4.33-22.2a140.51,140.51,0,0,0-31.73-61A143,143,0,0,0,241,63.3c-1.21-.62-2.37-1.43-3.83-1.34C235.85,57.74,237.87,54.09,239.18,50.31Z"/><path class="cls-8" d="M116.91,298.82c-.3,2.5-1.56,4.8-1.43,7.38a9,9,0,0,1-3.76-2.09l.58-1.47c1.1-.25,1.19-1.38,1.8-2.06C114.83,299.66,115.42,298.52,116.91,298.82Z"/><path class="cls-9" d="M33,165.34c.48,3-.77,6.16.77,9.08-.41,2.22-.83,4.45-1.25,6.67C32.29,175.83,31.7,170.55,33,165.34Z"/><path class="cls-10" d="M113.12,300.34q5.75-26.26,11.52-52.54,9.31-42.12,18.71-84.22a33.35,33.35,0,0,1,1.16-3.5,2.18,2.18,0,0,1,2.13.12c5,2.84,10.79,4.27,15.06,8.42.72,2.34-.48,4.61-.26,6.93a14,14,0,0,0,4.82,11.25c1.07,1,2.43,1.79,3,3.3.32,1.75-.63,3.14-1.35,4.57q-25.31,50.55-50.53,101.15c-1,1.92-2.29,3.57-3.31,5.43C113.33,301.33,112.92,301.13,113.12,300.34Z"/><path class="cls-11" d="M161.19,168.51l-16.68-8.43c6.07-8.24,13.08-15.7,19.71-23.47Q196.55,98.73,229,61c.72-.85,1.33-1.79,2-2.69,2.88-2.14,4.28-5.73,7.43-7.6.76,2.17-.59,3.88-1.43,5.57q-25.75,51.66-51.58,103.27a5.48,5.48,0,0,1-1.75,2.39c-2.4.31-4.62-.74-7-.81a15.33,15.33,0,0,0-12.28,5.24C163.51,167.3,162.92,168.78,161.19,168.51Z"/><path class="cls-12" d="M113.12,300.34l.75.77c.24-.36.48-.35.71,0-.54.83-.72,2.2-2.28,1.52C112.48,301.84,112.37,300.94,113.12,300.34Z"/><path class="cls-13" d="M183.67,161.57c.58-1.37,1.09-2.77,1.75-4.1Q211,106.31,236.57,55.14c.71-1.44,1.25-3,1.87-4.45l.74-.38c.27,4-1.59,7.73-2,11.66q-.62,3-1.21,6-5.53,24.38-11.05,48.75-8.41,37.51-16.77,75.05a1.53,1.53,0,0,1-1.4.24c-5.71-2.58-11.51-5-16.66-8.65-.58-2.51,1.16-4.74.83-7.22a13.49,13.49,0,0,0-5.61-12.24A3.25,3.25,0,0,1,183.67,161.57Z"/><path class="cls-4" d="M190.55,183.21l17.62,8.56Q194,208.45,179.84,225.12q-28.2,33-56.46,66c-2.18,2.56-4.31,5.16-6.47,7.74l-2.33,2.3h-.71c.65-1.48,1.24-3,2-4.44q25.61-51.24,51.22-102.47c.67-1.33,1.17-2.75,1.75-4.12.93-.67,1.9-.3,2.84,0,6.37,1.76,11.65,0,16-4.85C188.43,184.32,189,183,190.55,183.21Z"/><path class="cls-4" d="M183.67,161.57c5.38,3.28,8.63,7.78,8.23,14.36-1.19,1.11-2.69,1.18-4.18,1.19q-11.53.07-23.07,0c-1.49,0-3-.07-4.19-1.17-.51-2.55.85-4.93.73-7.44a3.54,3.54,0,0,0,.92-.59C168.37,160,174.11,158.33,183.67,161.57Z"/><path class="cls-14" d="M160.46,176l31.44,0c.52,2.6-.94,4.84-1.35,7.28-3.83,5.16-8.38,8.95-15.37,8.54-2.29-.13-4.27-1.06-6.38-1.67C163.92,186.61,160.23,182.44,160.46,176Z"/></g></g></svg>