<svg xmlns="http://www.w3.org/2000/svg" viewBox="0 0 48.6 48.6"><defs><style>.cls-1{fill:#141414;}.cls-2{fill:#fec044;}.cls-3{fill:#c58965;}.cls-4{fill:#fe9246;}.cls-5{fill:#d0a083;}.cls-6{fill:#dcb8a2;}.cls-7{fill:#010100;}.cls-8{fill:#fec860;}.cls-9{fill:#febf6c;}</style></defs><g id="katman_2" data-name="katman 2"><g id="katman_1-2" data-name="katman 1"><g id="right-component"><g id="post-1"><g id="bonfire"><path class="cls-1" d="M48.6,41.29v-.38a.22.22,0,0,1-.05-.17c-.1-.36-.2-.72-.32-1.07a3.28,3.28,0,0,0-2.45-2.27c-.47-.1-.91-.26-1.38-.35-.25,0-.24-.13-.17-.34a7.59,7.59,0,0,0-1.74-7.94,3.26,3.26,0,0,0-3.77-1c.14-.72.29-1.39.4-2.07a21.7,21.7,0,0,0-1.75-12.48,22.81,22.81,0,0,0-1.67-3.07,1,1,0,0,0-1.08-.51,1,1,0,0,0-.76.85,7.56,7.56,0,0,1-2,3.77A21.39,21.39,0,0,0,32,10.92,11.68,11.68,0,0,0,24.09.06S24,0,24,0h-.57c-.73.55-.8.87-.35,1.72A10.47,10.47,0,0,1,24,4.08a4,4,0,0,1-.49,3.14c-.34.53-.7,1-1.07,1.56a16.33,16.33,0,0,0-1.8,2.9c-.17-.08-.19-.24-.26-.37a10.32,10.32,0,0,0-3.47-3.69.92.92,0,0,0-1.07,0,1,1,0,0,0-.37,1.09,7.77,7.77,0,0,1,.2,2.45,7.49,7.49,0,0,1-1.49,3.73c-.85,1.21-1.86,2.27-2.77,3.43A9.66,9.66,0,0,0,9.26,23a9,9,0,0,0,.64,4.4l.18.44a6.47,6.47,0,0,0-1.66-.24A4.33,4.33,0,0,0,5.3,29.74,8,8,0,0,0,4.43,37c-.5.14-1,.31-1.51.41A3.44,3.44,0,0,0,.2,40.15c-.06.21-.08.44-.12.65H0v2H.08a7.44,7.44,0,0,0,2.61,5,6.75,6.75,0,0,0,1.49.76h1c1.45-.4,2.9-.82,4.35-1.2L24,43.55a1,1,0,0,1,.6,0L43,48.46c.11,0,.27,0,.33.14h1c2.68-.86,3.64-3,4.17-5.5,0-.1,0-.23.11-.29v-1h0v-.57Z"/><path class="cls-2" d="M28.55,21.42a1,1,0,0,0,.18-1.48,14.71,14.71,0,0,0-2.11-2.61,1,1,0,0,0-1.16-.26,1,1,0,0,0-.53,1.06,8.88,8.88,0,0,1-2.79,7.22c-.2.21-.29.15-.41-.06A5.38,5.38,0,0,1,21,23.11a1,1,0,0,0-.66-1,1,1,0,0,0-1.14.38,8.13,8.13,0,0,0-2.42,7.1l-2-.52c-.58-.15-1.15-.33-1.73-.45a1,1,0,0,1-.76-.62,10.28,10.28,0,0,1-1.17-3.49,6.19,6.19,0,0,1,1.32-4.38c.86-1.2,1.87-2.27,2.78-3.43A10.55,10.55,0,0,0,17.52,12c.06-.4.09-.8.15-1.27a7.08,7.08,0,0,1,1.78,3.49,11.72,11.72,0,0,1,.22,2.36,1,1,0,0,0,.57.91.9.9,0,0,0,1-.13,1,1,0,0,0,.35-.84,11.54,11.54,0,0,1,.4-2.86,10.49,10.49,0,0,1,1.71-3.3c.44-.62.88-1.23,1.31-1.86a5.84,5.84,0,0,0,.82-5.06L25.71,3a6.51,6.51,0,0,1,2,1.64,10.35,10.35,0,0,1,2.4,6,18.3,18.3,0,0,1-.43,5.42,1,1,0,0,0,1.55,1.13,9.67,9.67,0,0,0,3.64-3.84l.2-.37s0,0,.06,0a15.4,15.4,0,0,1,1,2.23A19.06,19.06,0,0,1,36.65,28a.71.71,0,0,1-.56.53q-2.52.64-5,1.34c-.29.08-.43.08-.33-.28a2.42,2.42,0,0,0,0-.47,1,1,0,0,0-.87-1.22.2.2,0,0,1,0-.13,2.12,2.12,0,0,0-.05-.83,2.09,2.09,0,0,1,0-.43,2.11,2.11,0,0,0-.05-.66.67.67,0,0,1,0-.28,1,1,0,0,1,.26-.27c.28-.23.51-.48.4-.88a.83.83,0,0,0-.77-.64.58.58,0,0,1-.35-.13c-.25-.55-.45-1.13-.71-1.67A.52.52,0,0,1,28.55,21.42Z"/><path class="cls-3" d="M42.68,35.12a1.7,1.7,0,0,1-1.39,1.81L8.19,45.8l-.45.11a8.39,8.39,0,0,0-2-7.32l4.28-1.14,22.31-6c2.36-.64,4.72-1.26,7.08-1.91a1.48,1.48,0,0,1,1.42.27,5.46,5.46,0,0,1,1.75,3.07c0,.19,0,.29-.21.33-.48.11-.95.24-1.42.38a.95.95,0,1,0,.52,1.82l.6-.15Z"/><path class="cls-4" d="M29.91,27.8s0,.06,0,.08c-.66.1-.88.31-1,.94a.3.3,0,0,1,0,.1c-.06.53,0,1.19-.32,1.53s-1,.33-1.47.47a8,8,0,0,0-1.09.3,5.12,5.12,0,0,1-3.77-.1c-1-.32-2.06-.57-3.1-.84a.49.49,0,0,1-.41-.38,6.13,6.13,0,0,1,.78-4.7c.17.06.17.25.23.38a5.45,5.45,0,0,0,1.37,1.85,1,1,0,0,0,1.52,0,11.42,11.42,0,0,0,4.07-6.6c0-.11.06-.21.11-.39.42.67.8,1.39,1.75,1a6.51,6.51,0,0,0,.57,1.46,2.15,2.15,0,0,1,.21.76c0,.16-.11.2-.2.28a.82.82,0,0,0,.28,1.45c.13.05.29,0,.39.16v.29c.12.21,0,.45.1.66V27A2,2,0,0,1,29.91,27.8Z"/><path class="cls-5" d="M6.75,31A3.47,3.47,0,0,1,8,29.67a1.17,1.17,0,0,1,.95-.16l11.44,3.06.12.1-2.3.63c-3.78,1-7.57,2-11.34,3.05-.44.12-.63,0-.77-.39A5.16,5.16,0,0,1,6,33c0-.24.16-.22.32-.18.51.14,1,.28,1.51.4a.94.94,0,1,0,.53-1.81C7.82,31.27,7.32,31.15,6.75,31Z"/><path class="cls-5" d="M40.88,45.93,28,42.47c1.07-.29,2-.51,2.92-.8a2.93,2.93,0,0,1,1.94,0c.55.18,1.12.31,1.69.46s1.09.06,1.33-.37.15-.83-.34-1.35l7.22-1.93.07.12a8.3,8.3,0,0,0-1.93,7.3Z"/><path class="cls-6" d="M6,44.19a3.67,3.67,0,0,1-.42,1.92,1,1,0,0,1-1.48.4,3,3,0,0,1-1-.89A6.27,6.27,0,0,1,2,40.88a3.31,3.31,0,0,1,.2-.68c.39-1,1.08-1.16,1.9-.52a5.43,5.43,0,0,1,1.79,3.2A5.77,5.77,0,0,1,6,44.19Z"/><path class="cls-6" d="M42.58,44.09a6.4,6.4,0,0,1,1.2-3.66,3.38,3.38,0,0,1,.8-.8,1.05,1.05,0,0,1,1.77.45,3.51,3.51,0,0,1,.34,1.56,6.35,6.35,0,0,1-1.4,4.18,2.61,2.61,0,0,1-.91.74.91.91,0,0,1-1.31-.36A3.73,3.73,0,0,1,42.58,44.09Z"/><path class="cls-7" d="M29.8,25.53c-.61,0-1-.26-1.1-.71s.07-.84.63-1.18a1,1,0,0,1,1.07.43C30.75,24.61,30.52,25.18,29.8,25.53Z"/><path class="cls-8" d="M29.91,27.8V27A.89.89,0,0,1,29.91,27.8Z"/><path class="cls-9" d="M29.9,26.48c-.18-.2-.07-.44-.1-.66C30,26,29.86,26.26,29.9,26.48Z"/><path d="M29.34,36.05a.89.89,0,0,1-.71.75c-.7.2-1.4.39-2.1.56a.93.93,0,0,1-1.12-.64A.88.88,0,0,1,26,35.58,21.1,21.1,0,0,1,28.3,35C28.86,34.83,29.35,35.32,29.34,36.05Z"/><path d="M14.91,40.31a.84.84,0,0,1-.66.75c-.72.21-1.45.41-2.19.59A.92.92,0,0,1,11,41a.87.87,0,0,1,.51-1.13,24.38,24.38,0,0,1,2.37-.64C14.43,39.11,14.92,39.6,14.91,40.31Z"/></g></g></g></g></g></svg>