<svg xmlns="http://www.w3.org/2000/svg" viewBox="0 0 48.41 48.42"><defs><style>.cls-1{fill:#d3cfc2;}</style></defs><g id="katman_2" data-name="katman 2"><g id="katman_1-2" data-name="katman 1"><g id="right-component"><g id="post-1"><g id="bonfire"><g id="fire-outline"><path class="cls-1" d="M48.37,40.58c-.1-.35-.2-.71-.32-1.06a3.27,3.27,0,0,0-2.45-2.26c-.45-.1-.9-.26-1.36-.35-.25,0-.24-.13-.17-.34a7.56,7.56,0,0,0-1.74-7.9c-1.06-1.18-2-1.35-3.75-1,.13-.68.28-1.35.39-2a21.57,21.57,0,0,0-1.74-12.42,19.71,19.71,0,0,0-1.67-3.06,1,1,0,0,0-1.06-.52,1,1,0,0,0-.76.85,7.46,7.46,0,0,1-2,3.75,21.11,21.11,0,0,0,.09-3.35A11.65,11.65,0,0,0,24,.06S24,0,23.92,0h-.56c-.73.54-.8.86-.36,1.71a9.86,9.86,0,0,1,.94,2.36,3.94,3.94,0,0,1-.49,3.12c-.33.53-.7,1-1.07,1.56a15.8,15.8,0,0,0-1.78,2.89c-.18-.08-.2-.25-.26-.37a10.34,10.34,0,0,0-3.46-3.68.92.92,0,0,0-1.07,0,1,1,0,0,0-.37,1.09,7.69,7.69,0,0,1,.2,2.44,7.53,7.53,0,0,1-1.48,3.72c-.85,1.2-1.86,2.26-2.76,3.42a9.56,9.56,0,0,0-2.18,4.63,9.13,9.13,0,0,0,.64,4.39c.05.13.11.26.18.43a6.39,6.39,0,0,0-1.65-.24,4.22,4.22,0,0,0-3.11,2.16,7.78,7.78,0,0,0-.87,7.21c-.5.14-1,.31-1.5.41A3.42,3.42,0,0,0,.2,40c-.06.21-.08.44-.12.65H0v2H.08a7.45,7.45,0,0,0,2.6,5,6.9,6.9,0,0,0,1.48.76h1l4.33-1.2,14.33-3.84a1.22,1.22,0,0,1,.6,0l18.33,4.92c.11,0,.27,0,.33.15h1c2.67-.86,3.62-3,4.15-5.48,0-.1,0-.23.1-.29V41.7h0v-.57h0v-.37A.27.27,0,0,1,48.37,40.58Zm-36-20.49c.85-1.2,1.86-2.26,2.76-3.42a10.41,10.41,0,0,0,2.3-4.74c.07-.4.1-.8.15-1.27a7.19,7.19,0,0,1,1.79,3.52,14.17,14.17,0,0,1,.22,2.35.94.94,0,1,0,1.88,0c0-.13,0-.26,0-.38a9.4,9.4,0,0,1,1.52-5c.43-.64.89-1.26,1.33-1.89A10.6,10.6,0,0,0,25.47,7.4a5.75,5.75,0,0,0,.3-3.79l-.17-.68a9.38,9.38,0,0,1,2.8,2.85A11.09,11.09,0,0,1,30,12.08a18.36,18.36,0,0,1-.48,4,1,1,0,0,0,.33,1.15,1,1,0,0,0,1.19,0,9.55,9.55,0,0,0,3.66-3.85l.24-.45a19.81,19.81,0,0,1,1.47,3.56,18.64,18.64,0,0,1,.08,11.42.67.67,0,0,1-.55.53q-2.52.64-5,1.34c-.34.1-.42,0-.33-.31a2.81,2.81,0,0,0,.06-.65.93.93,0,0,0-.83-1,.9.9,0,0,0-1,.76c-.1.51-.18,1-.24,1.54a.38.38,0,0,1-.35.36l-3.73,1a1.22,1.22,0,0,1-.6,0L19,30.16c-.2-.05-.34-.11-.38-.35a6.19,6.19,0,0,1,.79-4.75c.18.35.34.68.52,1a4.53,4.53,0,0,0,1.09,1.3,1,1,0,0,0,1.43,0,11.38,11.38,0,0,0,4.1-6.6c0-.11.05-.21.1-.39.16.24.29.44.43.63a.94.94,0,1,0,1.58-1,12.89,12.89,0,0,0-2.27-2.82.95.95,0,0,0-1.6.8,8.82,8.82,0,0,1-2.73,7.22c-.24.25-.34.2-.49-.07a5.62,5.62,0,0,1-.7-2.14,1,1,0,0,0-.67-.93,1,1,0,0,0-1.1.35,8.13,8.13,0,0,0-2.48,6.76c0,.3,0,.34-.31.26-1.19-.34-2.39-.65-3.59-1a.43.43,0,0,1-.34-.22,9.32,9.32,0,0,1-1.37-4.36A6.23,6.23,0,0,1,12.39,20.09ZM5.94,32.86c0-.24.18-.17.31-.14.5.13,1,.27,1.5.39a.94.94,0,1,0,.51-1.8c-.49-.16-1-.28-1.54-.42A3.57,3.57,0,0,1,7.89,29.6a1.25,1.25,0,0,1,1-.2l11.46,3.07c-.07.21-.27.16-.4.2L6.78,36.22c-.4.11-.56,0-.69-.35A5.15,5.15,0,0,1,5.94,32.86ZM5.57,45.93a1,1,0,0,1-1.47.41A3.11,3.11,0,0,1,3,45.22a6.11,6.11,0,0,1-.91-4.81,2,2,0,0,1,.18-.48A1,1,0,0,1,4,39.48a5.3,5.3,0,0,1,1.87,3.23A5.77,5.77,0,0,1,6,44,3.72,3.72,0,0,1,5.57,45.93Zm13.6-3.25-11.07,3-.39.09a8.35,8.35,0,0,0-1.95-7.29l4-1.07,22.49-6c2.37-.64,4.74-1.26,7.1-1.92a1.46,1.46,0,0,1,1.41.29,5.51,5.51,0,0,1,1.74,3.06c0,.2,0,.28-.22.32-.46.11-.92.24-1.37.37a1,1,0,0,0-.77,1.2,1,1,0,0,0,1.25.62l1.14-.3,0,0a1.7,1.7,0,0,1-1.46,1.78Zm8.69-.37c1.35-.36,2.56-.69,3.77-1a1.55,1.55,0,0,1,.78.15c.67.16,1.33.35,2,.53s1.08.06,1.32-.38.14-.83-.35-1.32l7.21-1.93a8.79,8.79,0,0,0-1.89,7.38Zm17.27,3.33a2.85,2.85,0,0,1-.86.72A1,1,0,0,1,42.86,46a3.92,3.92,0,0,1-.44-2.11,6.36,6.36,0,0,1,1.18-3.55,3.35,3.35,0,0,1,.86-.86,1,1,0,0,1,1.7.44,3.65,3.65,0,0,1,.36,1.69A6.33,6.33,0,0,1,45.13,45.64Z"/><path class="cls-1" d="M30.44,24.46a.94.94,0,1,1-1.88,0,.94.94,0,1,1,1.88,0Z"/><path class="cls-1" d="M29.23,35.74a.92.92,0,0,1-.73.93c-.67.2-1.36.38-2,.55a.93.93,0,0,1-1.15-.65.91.91,0,0,1,.63-1.16c.72-.22,1.45-.42,2.18-.58A.91.91,0,0,1,29.23,35.74Z"/><path class="cls-1" d="M14.85,40.16a.85.85,0,0,1-.69.76c-.7.21-1.4.4-2.1.56a.93.93,0,0,1-1.13-.68.9.9,0,0,1,.61-1.12c.74-.22,1.48-.43,2.23-.6C14.35,39,14.87,39.43,14.85,40.16Z"/></g></g></g></g></g></g></svg>