<svg id="Layer_1" data-name="Layer 1" xmlns="http://www.w3.org/2000/svg" viewBox="0 0 320 320"><defs><style>.cls-1{fill:red;}</style></defs><path class="cls-1" d="M51.21,175H225a15,15,0,0,0,0-30H51.21l19.4-19.39a15,15,0,0,0-21.22-21.22l-45,45a13.18,13.18,0,0,0-1,1.11c-.14.16-.26.34-.39.51s-.33.44-.48.67-.26.42-.39.64-.25.4-.37.61-.21.45-.32.67l-.31.66c-.09.22-.16.45-.24.67s-.18.47-.25.72-.12.45-.17.67-.14.5-.19.75-.08.52-.12.78-.07.45-.09.67A14.28,14.28,0,0,0,0,160v0a14.13,14.13,0,0,0,.08,1.46c0,.23.06.44.09.66s.07.53.12.79.12.5.18.75.11.45.18.68.16.47.25.71.15.45.24.67l.3.65c.11.23.21.46.33.68s.24.4.36.6.25.45.4.66.31.42.46.64l.41.54c.3.36.62.71.95,1.05l0,.05,45,45A15,15,0,0,0,70.61,194.4Z"/><path class="cls-1" d="M305,25H115a15,15,0,0,0-15,15v60a15,15,0,0,0,30,0V55H290V265H130V220a15,15,0,0,0-30,0v60a15,15,0,0,0,15,15H305a15,15,0,0,0,15-15V40A15,15,0,0,0,305,25Z"/></svg>